<?xml version="1.0" encoding="utf-8"?>
<!-- Generator: Adobe Illustrator 16.0.0, SVG Export Plug-In . SVG Version: 6.00 Build 0)  -->
<!DOCTYPE svg PUBLIC "-//W3C//DTD SVG 1.1//EN" "http://www.w3.org/Graphics/SVG/1.1/DTD/svg11.dtd">
<svg version="1.1" id="Layer_1" xmlns="http://www.w3.org/2000/svg" xmlns:xlink="http://www.w3.org/1999/xlink" x="0px" y="0px"
	 width="11452px" height="5056px" viewBox="0 0 11452 5056" enable-background="new 0 0 11452 5056" xml:space="preserve">
<g transform="translate(0.000000,5056.000000) scale(0.100000,-0.100000)">
	<path fill="#562293" d="M27609.99,29269.002c0-14736.005,3.008-21289.002,10-21289.002c21.006,0,368.008,90,555,143.994
		C29623.994,8540,31070.996,9205,32287.998,10012.997l271.992,180.996v19459.004v19458l-122.998,59
		c-820,388.996-2227.998,821-3877.002,1188.996c-301.992,67.004-786.992,169.008-896.992,189.008l-53.008,9V29269.002z"/>
	<path fill="#562293" d="M33679.992,39931.004V34262l162-139.004c573-486.992,1153-1058,1638-1613
		c542-618.992,1029-1272,1467-1969.998c109.004-173.994,309.004-508.994,373-625.996l33.008-60l240.992,122.002
		C38580.996,30477,39533,30749.002,40679.988,30857c150,14.004,285,17.998,705,17.002c532.012,0,739.004-9.004,1094.004-45
		c1475-150,2895-702.998,4085.996-1591.006c344.004-255.996,553.008-436.992,888.008-766.992c130-129.004,236.992-230,236.992-225
		c0,17.998-120,503.994-185,748.994c-1205,4551.006-3640.996,8672.998-7060.996,11949.002
		c-1900.992,1820.996-4087,3348.992-6440.992,4503c-172.004,84-315,152.996-318.008,152.996
		C33681.992,45599.996,33679.992,43048.992,33679.992,39931.004z"/>
	<path fill="#FA5F01" d="M22904.992,43448.992c-1053.996-31-2118.996-143.996-3165-333.996c-3705-675-7180-2357.004-10025-4855
		C9118,37736.004,8468,37094,7928.996,36494.996c-3149.004-3497-5030-7977-5323.996-12679.998c-14-227.002-35-672.002-35-742.002
		v-32.998h2853h2853.996l7,142.002c35.996,750.996,162.004,1662.998,342.004,2467.998c700,3135,2372,5962.002,4798.992,8111.006
		c2136.004,1891.992,4807,3162.996,7606.004,3617.996c553.996,90.996,1020.996,143,1643.996,183c270,17.996,1438.008,17.996,1705,0
		c729.998-47.004,1407-130,1984.998-243c55-10,106.006-19.004,113.008-19.004c8.994,0,11.992,602.004,11.992,2975
		s-2.998,2975-11.992,2975c-7.002,0-80,8.996-163.008,20C25197.998,43421,24028.996,43482,22904.992,43448.992z"/>
	<path fill="#FA5F01" d="M19389.992,35547.996c-230-48.996-388.996-86.992-538-128.996
		c-1310.996-371.004-2750.996-1089.004-4143.992-2066.004L14529.992,33229V17596.004V1962.002L14668,1905
		c785-323.994,2107.996-738.994,3661.992-1148.994c320-84.004,1124.004-286.006,1140-286.006c7,0,10,5648.994,10,17544.998
		v17544.998L19458,35559C19444.992,35557.996,19414.992,35554,19389.992,35547.996z"/>
	<path fill="#562293" d="M106909.984,29659.998c-856.992-55.996-1635-240-2415-570c-195-82.998-590-282.002-780-393.994
		c-1457.984-856.006-2557.984-2177.002-3135-3763.008c-200-548.994-336-1161.992-396-1777.998c-20.992-225-30-873.994-15-1112.998
		c64.008-980.996,313.016-1908.008,746-2773.008c403.008-803.994,974-1547.988,1645-2142.988
		c1040-923.007,2310-1522.011,3670-1729.999c399-61.006,661.016-80,1105-80c350,0,528.008,8.994,805,40
		c2388.008,266.992,4477.016,1707.987,5581.016,3848.993c450,872.998,711,1815,778.984,2812.998
		c13.008,195,13.008,752.002,0,942.002c-136.992,1990-1047.984,3780-2571,5052.002c-804,672.002-1787.984,1175.996-2794,1430.996
		c-411.992,105-751,163.008-1185,203.008C107744.984,29664.002,107112.992,29672.996,106909.984,29659.998z M108059.984,24689.998
		v-1470h1470h1470v-730v-730h-1465h-1465v-1465v-1465h-730h-730v1465v1465h-1470h-1470v730v730h1470h1470v1470v1470h725h725
		V24689.998z"/>
	<path fill="#562293" d="M40688.992,28719.998c-899-105.996-1725.992-400-2482.996-882.002
		c-1470-935.996-2484.004-2481.992-2785-4247.998c-95-558.994-117.004-1200-61.004-1765c249-2467.998,1877-4552.998,4145-5309.998
		c440-147.003,790-220.001,1348.004-278.995l36.992-4.004v1104.003c0,875-2.996,1105-11.992,1107.988c-7,2.012-75,13.008-150,25
		c-537,85-1087,311.006-1553.004,636.006c-183.996,127.998-348,267.998-530,450c-325,323.994-550,633.994-756,1040
		c-222.996,440-350.992,860-420,1380c-20,147.998-22.996,212.998-22.996,505c-1.004,359.004,8.996,482.002,60,760
		c85,462.998,248.996,912.998,482.004,1325c78.992,139.004,245.992,385,357.996,525c58.996,74.004,192.996,221.006,297.996,326.006
		c326,325,624.008,541.992,1005,733.994c393,196.006,717.004,297.002,1209.004,376.006l31.992,5v1103.994v1105l-21.992-0.996
		C40854.988,28737.996,40774.988,28729.998,40688.992,28719.998z"/>
	<path fill="#562293" d="M41799.988,27636.004v-1105l33.008-5c16.992-3.008,75-13.008,126.992-21.006
		c654.004-107.002,1287.012-397.998,1815-833.994c119.004-99.004,365-341.006,474.004-466.006
		c489.004-565,817.004-1262.998,945-2015c43.008-255,50.996-365,50.996-720c-0.996-290.996-3.992-357.002-23.992-505
		c-66.008-497.002-196.008-925.996-408-1348.994c-92-184.004-140.996-268.008-259.004-446.006
		c-600.996-907.002-1560.996-1537.002-2589.004-1701.006c-76.992-11.992-145.996-22.988-151.992-25
		c-10-2.988-13.008-232.988-13.008-1107.988v-1104.999l33.008,3.994c16.992,2.998,79.004,8.994,136.992,15
		C43698.992,16427,45297,17412,46294.988,18914.998c332.012,501.006,614.004,1097.002,783.008,1655
		c135,446.006,214.004,852.002,264.004,1365c20,206.006,16.992,935-5,1155c-140,1384.004-645,2575-1530,3610
		c-138.008,161.006-504.004,520-676.004,664.004c-813.996,678.994-1733.996,1113.994-2751.008,1300
		c-115.996,20.996-310.996,47.998-521.992,70.996l-58.008,6.006V27636.004z"/>
	<path fill="#562293" d="M61179.988,27444.998v-1235h48.008c25.996,0,1045.996,12.002,2266.992,26.006
		c2311.004,26.992,2681.004,26.992,2874.996,0c1311.008-182.002,2320-881.006,2860-1981.006
		c257.016-523.994,383.008-1068.994,383.008-1660c0-848.994-262-1630.996-775.992-2321.006
		c-607.016-812.988-1406.008-1295-2405-1448.994c-328.008-50-229.008-48.994-2814.004-52.002l-2438.008-4.004v-1235v-1233.993
		l2518.008,2.998c2759.996,3.008,2559.004-0.996,2904.004,62.002c265.992,47.997,696.992,167.997,1016.992,282.001
		c1407,500,2502,1306.992,3205.992,2362.998c242.016,363.994,409.008,688.994,564.008,1097.002
		c445.992,1180.996,517,2660.996,190.992,3982.998c-452.984,1831.006-1502.984,3171.006-3085,3936.006
		c-783.992,378.994-1590,582.998-2540,643.994c-100.992,6.006-1008.992,10-2466.988,10h-2308.008V27444.998z"/>
	<path fill="#562293" d="M74899.984,27444.998v-1225h4840h4840v1225v1225h-4840h-4840V27444.998z"/>
	<path fill="#562293" d="M50049.988,22484.998v-6174.999h1240h1240v2467.997c0,1358.008-2.988,4137.002-6.992,6175l-5.996,3707.002
		h-1234.004h-1233.008V22484.998z"/>
	<path fill="#562293" d="M87629.984,22484.998v-6174.999h1240h1240v6174.999v6175h-1240h-1240V22484.998z"/>
	<path fill="#562293" d="M91019.984,27624.998v-1033.994l1628.008-4.004l1626.992-2.998L94396,26557
		c66.992-14.004,161-40.996,210-57.998c443.984-155,821.992-505,1056.992-976.006l60.992-122.998h1049.008H97822l-7.016,52.998
		c-33.984,270-68.984,453.008-126,657.002c-101.984,367.002-272.984,731.006-484,1030
		C96672,27892.996,95807,28409.002,94714.984,28627l-140,27.998l-1776.992,2.998l-1778.008,2.002V27624.998z"/>
	<path fill="#562293" d="M95652.992,24442.996c-54.008-95-145-225-218.008-311.992c-318.984-379.004-823.984-661.006-1391-776.006
		l-121.984-25h-1451h-1451.016V22297v-1032.998l63.008-12.002c396.992-80,1155-847.002,2238.008-2267.002
		c486.992-637.998,1080-1471.006,1646-2312.002l244-362.997h1520c835,0,1518.984,2.998,1518.984,6.006
		c0,2.988-795,1116.991-1766.992,2474.999c-973.008,1357.988-1769.008,2473.994-1770.992,2478.994c-2.016,5,6.984,11.006,20,14.004
		c130,27.002,435.992,108.994,572.984,152.998c745,240.996,1331.016,614.004,1770,1125c316.016,369.004,550,825,669,1307.998
		c51,205,86,432.998,86,562.998v57.002h-1075H95681L95652.992,24442.996z"/>
	<path fill="#562293" d="M20569.992,22209.998v-1590h2960h2959.998v1590v1590h-2959.998h-2960V22209.998z"/>
	<path fill="#562293" d="M74899.984,22494.998v-1225h4840h4840v1225v1225h-4840h-4840V22494.998z"/>
	<path fill="#FA5F01" d="M10,21899.998c0-73.994,136-912.002,218.996-1350c660-3477.002,2066.004-6843.993,4078-9762.997
		C5878,8507.002,7763,6526.006,9959.992,4846.006C10961.996,4080,12093.996,3343.994,13218,2727.002l191.992-105.996v4572.988
		v4572.011l-151.992,140c-1292,1182.988-2420,2547.988-3195,3868.994c-792,1348.993-1328.008,2812.997-1583.008,4321.005
		c-83.992,496.992-145,1101.992-165.996,1646.992l-7,177.002h-4148H10V21899.998z"/>
	<path fill="#562293" d="M74899.984,17549.998v-1229.999h4840h4840v1229.999v1230h-4840h-4840V17549.998z"/>
	<path fill="#562293" d="M53439.988,17534.998v-1224.999h2320h2320v1224.999v1225h-2320h-2320V17534.998z"/>
	<path fill="#562293" d="M37705.996,15012.997c-239.004-480.996-476.004-905.996-732.996-1316.992
		c-2450-3917.012-6476.008-6539.999-11008.01-7169.999c-391.992-55-845.996-99.004-1304.998-128.008
		c-277.998-17.998-1395-17.998-1665,0c-633,40.996-1173.996,103.008-1733,197.002c-175,30-570.996,105-638.992,122.002l-23.008,5
		V3482.998V243.994L20838,212.002C22474.992-7.998,23958-52.002,25534.99,70
		c5599.004,436.006,10792.002,3006.006,14559.002,7203.994c1957.004,2181.005,3475,4766.005,4414.004,7518.007l70.996,206.992
		l-51.992-20.996c-667.012-266.992-1398.008-450-2112.012-526.992c-348.992-38.008-495.996-46.006-895-45
		c-422.988,0-625.996,11.992-1000,60c-891.988,111.992-1795.996,385-2580.996,778.994c-49,25-90,45-90.992,45
		C37845.996,15289.999,37783,15164.999,37705.996,15012.997z"/>
</g>
</svg>
