<?xml version="1.0" encoding="utf-8"?>
<!-- Generator: Adobe Illustrator 16.0.0, SVG Export Plug-In . SVG Version: 6.00 Build 0)  -->
<!DOCTYPE svg PUBLIC "-//W3C//DTD SVG 1.1//EN" "http://www.w3.org/Graphics/SVG/1.1/DTD/svg11.dtd">
<svg version="1.1" id="Layer_1" xmlns="http://www.w3.org/2000/svg" xmlns:xlink="http://www.w3.org/1999/xlink" x="0px" y="0px"
	 width="11195px" height="11660px" viewBox="0 0 11195 11660" enable-background="new 0 0 11195 11660" xml:space="preserve">
<g transform="translate(0.000000,11660.000000) scale(0.100000,-0.100000)">
	<path fill="#562293" d="M63669.988,67500c0-44543,1.004-49099.992,16.004-49099.992c21.008,0,350,78.984,608.996,146.992
		c1309.996,340,2839.996,855.996,4224.996,1423.008c2336.008,955.996,4438.008,2082.988,6362.016,3408.984l197.984,136.016V68391
		v44876l-196.992,92.992c-1314,618-2995,1210-5168.008,1819.008c-1676.992,470-3792.984,973-5599.996,1332
		c-220,43-410,81-421.992,83.992l-23.008,5V67500z"/>
	<path fill="#562293" d="M77659.984,92097.992v-13075l143.008-117.992c1463-1219,2886.992-2617,4171.992-4100
		c1504.008-1734,2972.016-3818,4055-5755c57.016-102,106.016-188,110-193c3.008-4,103.008,45,221.016,108
		c1192.984,643,2558.984,1192,3878.984,1558.992c1436.016,398.008,2859,621.008,4385,686.008c249,11,1252.016,13.992,1384,5
		c42.016-3,272.016-12,511-20c633.008-22,1087.016-54,1600-111.008C101503.984,70708,104696,69445,107426,67405
		c832.984-623,1658.984-1351.008,2333.984-2058c123.008-130,225-235,226.016-234.004c3.984,4.004-185,785.996-284,1177.004
		c-1279.008,5038-3206,9853.992-5759.008,14387.992C100798.984,86262,96742,91329,91973.984,95626
		c-3960.992,3570-8330.992,6558-13079,8943c-445.992,223.992-1165,576-1221.992,598
		C77662.992,105171,77659.984,102552.992,77659.984,92097.992z"/>
	<path fill="#FA5F01" d="M53209.988,99590c-4090.996-96-7997.988-667.008-11865-1735
		C31290.996,95079,22351.994,89055,15938,80733.992C13446.996,77502,11366,73953.992,9768.996,70213
		c-2157.996-5054.008-3430-10423-3774.004-15922.996c-36.992-594.004-75-1444.004-75-1673.008v-106.992l6578.008,1.992
		l6576.992,3.008l2,55c2.004,30,10,173.984,18,320C19313,56646,20124.992,60325,21504.992,63805c2502,6308,6797,11781,12350,15736
		c5213.004,3713,11319,5924,17694.996,6408c1039.004,78.992,1866.008,106,2985,98c847.012-7,1209.004-18,1915-62
		C57912,85892.992,59442,85701,60837,85434c127.988-24,236.992-44,241.992-44c8.008,0,10.996,2050,10.996,6859v6858.992
		l-26.992,6.008c-85.996,18-950,128-1418.008,180c-1327.988,150-2510.996,235-4000,287
		C55255.992,99594,53652.996,99600,53209.988,99590z"/>
	<path fill="#FA5F01" d="M44829.988,82002.992c-265.996-45-771.992-159-1130-254C41272.996,81102,38489.992,79842,35819.992,78183
		c-710-441-1548-999.008-2155-1434.008l-160-115l-3-36056l-2-36055.992l117-50c1053-451.992,2813-1061.016,4728-1636.016
		c1824-546.992,4131.004-1171.992,6074.996-1645.977c250-61.016,463.008-113.008,473.008-116.016
		c15.996-5,16.992,1926.016,16.992,40465V82010l-26.992-1C44867,82007.992,44843.992,82005,44829.988,82002.992z"/>
	<path fill="#562293" d="M94834.984,68633.992c-258.984-10.992-535-25.992-710-40c-2816-210-5516-1132.992-7870-2688.992
		C83266,63928.992,80992.992,61035,79787,57670.004c-903.008-2518.008-1179.008-5255-801.008-7930
		c683-4841.016,3486.008-9132.012,7662-11733.004c685.992-426.992,1475-837.992,2226.992-1159.008
		c2479-1058.984,5176.016-1490.992,7895-1266.992c5042.016,415,9624,3131,12425,7364.004
		c2002.016,3025,2943.008,6573.984,2710,10220c-163.984,2560.996-922.984,5050-2216,7261.996
		c-1310,2241.992-3131.984,4150-5309,5561c-1762.984,1142-3731,1939-5780,2340.992c-763.984,150-1486,239.008-2350,291.008
		C96081,68631,94998.984,68641,94834.984,68633.992z M97057.992,57152.992l1.992-3382.988h3380h3380v-1685v-1685h-3370h-3370v-3385
		v-3385h-1690h-1690v3385v3385h-3380h-3380v1685v1685h3380h3380v3377.988c0,1858.012,3.008,3382.008,7.016,3385.004
		c2.984,4.004,757.984,5.996,1676.984,5l1671-2.996L97057.992,57152.992z"/>
	<path fill="#562293" d="M47439.988,51220.004v-3670h6825h6825v3670v3670h-6825h-6825V51220.004z"/>
	<path fill="#FA5F01" d="M0,49925.004c0-19.004,120-843.008,166-1135C1188.996,42192.992,3308.996,35841,6454.992,29945.006
		c4215-7898.006,10186.004-14779.998,17429.998-20091.014C25912.998,8367,28077.998,6982,30279.99,5762.996
		c391.006-215.996,625-342.988,634.004-342.988c2.998,0,5.996,4743.984,5.996,10542.988v10543.008l-121.992,109.004
		c-962.002,862.986-2126.006,2021.99-3029.004,3014.998c-1092.002,1200.996-2120,2470-3020.996,3730.002
		c-2242,3135.992-3844.998,6574-4748.006,10177.984c-490,1960-755,3869.004-841.992,6080l-12.004,312.012H9573
		C4308,49930.004,0,49927.992,0,49925.004z"/>
	<path fill="#562293" d="M87203.984,35117.992c-124-261.992-561.984-1130-705-1397.984
		c-1260-2363.01-2725.992-4510.002-4454-6525.002c-4665-5439.002-10828.992-9353.006-17685.992-11229.021
		c-3695-1010.977-7540-1420.977-11364.004-1210.977c-1660.996,91.992-3400,316.992-5130.996,665c-192.996,37.988-355,70-361.992,70
		c-9.004,0-12.012-1688.008-12.012-7465c0-4106.016,3.008-7465,7.012-7465c3.996,0,180-25,391.992-54.023
		C50922.996,77,53884.988-76.008,56884.988,40.008c6422.012,248.984,12659.004,1695,18489.996,4287.988
		c1208.008,537.012,2497.016,1175,3655,1807.012c5200,2840,9857.016,6568.984,13775,11030
		c4408.008,5018.984,7778.008,10853.982,9905,17152.984c49,144.008,87.016,262.016,85,262.016
		c-1.992,0-87.984-33.008-191.992-74.008c-1838.008-720.992-3705.992-1136.992-5658.008-1260.992
		c-461-29.008-841.992-38.008-1375-32.016c-521,6.016-692.984,12.016-1115,42.016C92052,33426,89757.992,34046,87581,35111
		c-167.016,81.992-305,149.008-307.016,149.008C87272,35260.008,87241,35196,87203.984,35117.992z"/>
</g>
</svg>
